<svg width="46" height="46" viewBox="0 0 46 46" fill="none" xmlns="http://www.w3.org/2000/svg">
<path d="M22.7687 44.3818C10.8986 44.3818 1.30664 34.8425 1.30664 23.0376C1.30664 17.3141 3.58474 11.9482 7.54143 7.894C11.618 3.8398 17.0135 1.57422 22.7687 1.57422C34.6388 1.57422 44.2308 11.1135 44.2308 22.9184C44.2308 34.7233 34.6388 44.2626 22.7687 44.3818Z" fill="url(#paint0_linear_2001_2587)"/>
<mask id="mask0_2001_2587" style="mask-type:alpha" maskUnits="userSpaceOnUse" x="1" y="1" width="44" height="44">
<path d="M22.7687 44.3818C10.8986 44.3818 1.30664 34.8425 1.30664 23.0376C1.30664 17.3141 3.58474 11.9482 7.54143 7.894C11.618 3.8398 17.0135 1.57422 22.7687 1.57422C34.6388 1.57422 44.2308 11.1135 44.2308 22.9184C44.2308 34.7233 34.6388 44.2626 22.7687 44.3818Z" fill="url(#paint1_linear_2001_2587)"/>
</mask>
<g mask="url(#mask0_2001_2587)">
<path d="M46.2641 18.8325L-0.376953 18.8984L-0.365382 27.1261L46.2757 27.0601L46.2641 18.8325Z" fill="black"/>
<path d="M46.2641 35.4067L-0.376953 35.4727L-0.365382 43.7003L46.2757 43.6343L46.2641 35.4067Z" fill="black"/>
<path d="M46.2641 2.25825L-0.376953 2.32422L-0.365382 10.5519L46.2757 10.4859L46.2641 2.25825Z" fill="black"/>
</g>
<path d="M23.0596 2.51165C34.3963 2.51165 43.6076 11.7229 43.6076 23.0596C43.6076 34.3963 34.3963 43.6076 23.0596 43.6076C11.7229 43.6076 2.51165 34.3963 2.51165 23.0596C2.51165 11.7229 11.7229 2.51165 23.0596 2.51165ZM23.0596 0.8C17.045 0.8 11.5089 3.08634 7.2976 7.2976C3.08634 11.5089 0.8 17.045 0.8 23.0596C0.8 35.3334 10.7873 45.2 22.9404 45.2C28.955 45.2 34.4911 42.9137 38.7024 38.7024C42.9137 34.4911 45.2 28.955 45.2 22.9404C45.2 10.7873 35.3334 0.8 23.0596 0.8Z" fill="white" stroke="white" stroke-width="0.4"/>
<defs>
<linearGradient id="paint0_linear_2001_2587" x1="1.28961" y1="23.0021" x2="44.2406" y2="22.9412" gradientUnits="userSpaceOnUse">
<stop stop-color="#E8990C"/>
<stop offset="0.3903" stop-color="#F4B40D"/>
<stop offset="0.7418" stop-color="#FCC60D"/>
<stop offset="1" stop-color="#FFCC0D"/>
</linearGradient>
<linearGradient id="paint1_linear_2001_2587" x1="1.28961" y1="23.0021" x2="44.2406" y2="22.9412" gradientUnits="userSpaceOnUse">
<stop stop-color="#E8990C"/>
<stop offset="0.3903" stop-color="#F4B40D"/>
<stop offset="0.7418" stop-color="#FCC60D"/>
<stop offset="1" stop-color="#FFCC0D"/>
</linearGradient>
</defs>
</svg>
