<svg width="41" height="42" viewBox="0 0 41 42" fill="none" xmlns="http://www.w3.org/2000/svg">
<path d="M20.4996 40.0358C9.97147 40.0358 1.46387 31.5519 1.46387 21.0531C1.46387 15.9628 3.48442 11.1906 6.99381 7.58493C10.6095 3.97928 15.3951 1.96436 20.4996 1.96436C31.0278 1.96436 39.5354 10.4482 39.5354 20.947C39.5354 31.4458 31.0278 39.9297 20.4996 40.0358Z" fill="url(#paint0_linear_1324_7427)"/>
<mask id="mask0_1324_7427" style="mask-type:alpha" maskUnits="userSpaceOnUse" x="1" y="1" width="39" height="40">
<path d="M20.5001 40.0358C9.97196 40.0358 1.46436 31.5519 1.46436 21.0531C1.46436 15.9628 3.48491 11.1906 6.9943 7.58493C10.61 3.97928 15.3955 1.96436 20.5001 1.96436C31.0283 1.96436 39.5359 10.4482 39.5359 20.947C39.5359 31.4458 31.0283 39.9297 20.5001 40.0358Z" fill="url(#paint1_linear_1324_7427)"/>
</mask>
<g mask="url(#mask0_1324_7427)">
<path d="M42.0199 17.1909L-0.712402 17.2515L-0.701801 24.8102L42.0305 24.7496L42.0199 17.1909Z" fill="#121212"/>
<path d="M42.0199 32.4177L-0.712402 32.4783L-0.701543 40.2215L42.0308 40.1609L42.0199 32.4177Z" fill="#121212"/>
<path d="M42.0189 1.27866L-0.713379 1.33997L-0.701951 9.58206L42.0304 9.52076L42.0189 1.27866Z" fill="#121212"/>
</g>
<defs>
<linearGradient id="paint0_linear_1324_7427" x1="1.46387" y1="21.0041" x2="39.5436" y2="21.0041" gradientUnits="userSpaceOnUse">
<stop stop-color="#FF9900"/>
<stop offset="0.765625" stop-color="#FFCD00"/>
</linearGradient>
<linearGradient id="paint1_linear_1324_7427" x1="1.46436" y1="21.0041" x2="39.544" y2="21.0041" gradientUnits="userSpaceOnUse">
<stop stop-color="#FF9900"/>
<stop offset="0.765625" stop-color="#FFCD00"/>
</linearGradient>
</defs>
</svg>
