<svg width="24" height="24" viewBox="0 0 24 24" fill="none" xmlns="http://www.w3.org/2000/svg">
<g id="Outlined 24 /vneseti">
<path id="Vector" d="M18.4858 17.2322V19.7908C18.4867 20.0283 18.4381 20.2634 18.3429 20.481C18.2478 20.6986 18.1082 20.894 17.9332 21.0545C17.7582 21.2151 17.5515 21.3374 17.3265 21.4135C17.1015 21.4895 16.8631 21.5178 16.6266 21.4964C14.0022 21.2113 11.4814 20.3145 9.26658 18.8782C7.20597 17.5688 5.45894 15.8218 4.14955 13.7612C2.70823 11.5363 1.81127 9.0032 1.53134 6.36708C1.51002 6.13124 1.53805 5.89355 1.61364 5.66914C1.68922 5.44473 1.8107 5.23851 1.97035 5.06362C2.13 4.88873 2.32431 4.749 2.54092 4.65332C2.75753 4.55765 2.99169 4.50812 3.22848 4.5079H5.787C6.20089 4.50382 6.60213 4.65039 6.91595 4.92027C7.22977 5.19015 7.43475 5.56494 7.49267 5.97478C7.60066 6.79356 7.80093 7.59749 8.08966 8.37125C8.20441 8.6765 8.22924 9.00825 8.16122 9.32718C8.0932 9.64611 7.93518 9.93886 7.70588 10.1707L6.62278 11.2538C7.83684 13.389 9.60469 15.1568 11.7398 16.3709L12.8229 15.2878C13.0548 15.0585 13.3475 14.9005 13.6665 14.8324C13.9854 14.7644 14.3172 14.7892 14.6224 14.904C15.3962 15.1927 16.2001 15.393 17.0189 15.501C17.4332 15.5594 17.8115 15.7681 18.082 16.0873C18.3524 16.4065 18.4961 16.814 18.4858 17.2322Z" stroke="white" stroke-width="1.5" stroke-linecap="round" stroke-linejoin="round"/>
<path id="Arrow 1" d="M13.4697 8.46967C13.1768 8.76256 13.1768 9.23744 13.4697 9.53033C13.7626 9.82322 14.2374 9.82322 14.5303 9.53033L13.4697 8.46967ZM21.75 2C21.75 1.58579 21.4142 1.25 21 1.25L14.25 1.25C13.8358 1.25 13.5 1.58579 13.5 2C13.5 2.41421 13.8358 2.75 14.25 2.75H20.25V8.75C20.25 9.16421 20.5858 9.5 21 9.5C21.4142 9.5 21.75 9.16421 21.75 8.75L21.75 2ZM14.5303 9.53033L21.5303 2.53033L20.4697 1.46967L13.4697 8.46967L14.5303 9.53033Z" fill="white"/>
</g>
</svg>
