<svg width="24" height="24" viewBox="0 0 24 24" fill="none" xmlns="http://www.w3.org/2000/svg">
<mask id="mask0_14_1233" style="mask-type:alpha" maskUnits="userSpaceOnUse" x="4" y="1" width="16" height="22">
<rect x="4" y="1" width="16" height="22" fill="#232325"/>
</mask>
<g mask="url(#mask0_14_1233)">
<path d="M20 4.5V3.75C20 3.15326 19.7629 2.58097 19.341 2.15901C18.919 1.73705 18.3467 1.5 17.75 1.5H6.5C5.90326 1.5 5.33097 1.73705 4.90901 2.15901C4.48705 2.58097 4.25 3.15326 4.25 3.75V20.25C4.25 20.8467 4.48705 21.419 4.90901 21.841C5.33097 22.2629 5.90326 22.5 6.5 22.5H17.75C18.3467 22.5 18.919 22.2629 19.341 21.841C19.7629 21.419 20 20.8467 20 20.25H21.5C22.0967 20.25 22.669 20.0129 23.091 19.591C23.5129 19.169 23.75 18.5967 23.75 18V6.75C23.75 6.15326 23.5129 5.58097 23.091 5.15901C22.669 4.73705 20.5967 4.5 20 4.5ZM5.75 6H18.5V9H5.75V6ZM6.5 3H17.75C17.9489 3 18.1397 3.07902 18.2803 3.21967C18.421 3.36032 18.5 3.55109 18.5 3.75V4.5H5.75V3.75C5.75 3.55109 5.82902 3.36032 5.96967 3.21967C6.11032 3.07902 6.30109 3 6.5 3ZM18.5 20.25C18.5 20.4489 18.421 20.6397 18.2803 20.7803C18.1397 20.921 17.9489 21 17.75 21H6.5C6.30109 21 6.11032 20.921 5.96967 20.7803C5.82902 20.6397 5.75 20.4489 5.75 20.25V10.5H18.5V20.25ZM22.25 18C22.25 18.1989 22.171 18.3897 22.0303 18.5303C21.8897 18.671 21.6989 20.25 21.5 20.25H20V4.5C20.1989 4.5 21.8897 6.07902 22.0303 6.21967C22.171 6.36032 22.25 6.55109 22.25 6.75V18Z" fill="#E8E8E8"/>
</g>
<path d="M9.125 12H8C7.80109 12 7.61032 12.079 7.46967 12.2197C7.32902 12.3603 7.25 12.5511 7.25 12.75C7.25 12.9489 7.32902 13.1397 7.46967 13.2803C7.61032 13.421 7.80109 13.5 8 13.5H9.125C9.32391 13.5 9.51468 13.421 9.65533 13.2803C9.79598 13.1397 9.875 12.9489 9.875 12.75C9.875 12.5511 9.79598 12.3603 9.65533 12.2197C9.51468 12.079 9.32391 12 9.125 12ZM12.6875 12H11.5625C11.3636 12 11.1728 12.079 11.0322 12.2197C10.8915 12.3603 10.8125 12.5511 10.8125 12.75C10.8125 12.9489 10.8915 13.1397 11.0322 13.2803C11.1728 13.421 11.3636 13.5 11.5625 13.5H12.6875C12.8864 13.5 13.0772 13.421 13.2178 13.2803C13.3585 13.1397 13.4375 12.9489 13.4375 12.75C13.4375 12.5511 13.3585 12.3603 13.2178 12.2197C13.0772 12.079 12.8864 12 12.6875 12ZM16.25 12H15.125C14.9261 12 14.7353 12.079 14.5947 12.2197C14.454 12.3603 14.375 12.5511 14.375 12.75C14.375 12.9489 14.454 13.1397 14.5947 13.2803C14.7353 13.421 14.9261 13.5 15.125 13.5H16.25C16.4489 13.5 16.6397 13.421 16.7803 13.2803C16.921 13.1397 17 12.9489 17 12.75C17 12.5511 16.921 12.3603 16.7803 12.2197C16.6397 12.079 16.4489 12 16.25 12ZM9.125 15H8C7.80109 15 7.61032 15.079 7.46967 15.2197C7.32902 15.3603 7.25 15.5511 7.25 15.75C7.25 15.9489 7.32902 16.1397 7.46967 16.2803C7.61032 16.421 7.80109 16.5 8 16.5H9.125C9.32391 16.5 9.51468 16.421 9.65533 16.2803C9.79598 16.1397 9.875 15.9489 9.875 15.75C9.875 15.5511 9.79598 15.3603 9.65533 15.2197C9.51468 15.079 9.32391 15 9.125 15ZM12.6875 15H11.5625C11.3636 15 11.1728 15.079 11.0322 15.2197C10.8915 15.3603 10.8125 15.5511 10.8125 15.75C10.8125 15.9489 10.8915 16.1397 11.0322 16.2803C11.1728 16.421 11.3636 16.5 11.5625 16.5H12.6875C12.8864 16.5 13.0772 16.421 13.2178 16.2803C13.3585 16.1397 13.4375 15.9489 13.4375 15.75C13.4375 15.5511 13.3585 15.3603 13.2178 15.2197C13.0772 15.079 12.8864 15 12.6875 15ZM16.25 15H15.125C14.9261 15 14.7353 15.079 14.5947 15.2197C14.454 15.3603 14.375 15.5511 14.375 15.75C14.375 15.9489 14.454 16.1397 14.5947 16.2803C14.7353 16.421 14.9261 16.5 15.125 16.5H16.25C16.4489 16.5 16.6397 16.421 16.7803 16.2803C16.921 16.1397 17 15.9489 17 15.75C17 15.5511 16.921 15.3603 16.7803 15.2197C16.6397 15.079 16.4489 15 16.25 15ZM9.125 18H8C7.80109 18 7.61032 18.079 7.46967 18.2197C7.32902 18.3603 7.25 18.5511 7.25 18.75C7.25 18.9489 7.32902 19.1397 7.46967 19.2803C7.61032 19.421 7.80109 19.5 8 19.5H9.125C9.32391 19.5 9.51468 19.421 9.65533 19.2803C9.79598 19.1397 9.875 18.9489 9.875 18.75C9.875 18.5511 9.79598 18.3603 9.65533 18.2197C9.51468 18.079 9.32391 18 9.125 18ZM12.6875 18H11.5625C11.3636 18 11.1728 18.079 11.0322 18.2197C10.8915 18.3603 10.8125 18.5511 10.8125 18.75C10.8125 18.9489 10.8915 19.1397 11.0322 19.2803C11.1728 19.421 11.3636 19.5 11.5625 19.5H12.6875C12.8864 19.5 13.0772 19.421 13.2178 19.2803C13.3585 19.1397 13.4375 18.9489 13.4375 18.75C13.4375 18.5511 13.3585 18.3603 13.2178 18.2197C13.0772 18.079 12.8864 18 12.6875 18ZM16.25 18H15.125C14.9261 18 14.7353 18.079 14.5947 18.2197C14.454 18.3603 14.375 18.5511 14.375 18.75C14.375 18.9489 14.454 19.1397 14.5947 19.2803C14.7353 19.421 14.9261 19.5 15.125 19.5H16.25C16.4489 19.5 16.6397 19.421 16.7803 19.2803C16.921 19.1397 17 18.9489 17 18.75C17 18.5511 16.921 18.3603 16.7803 18.2197C16.6397 18.079 16.4489 18 16.25 18Z" fill="#E8E8E8"/>
</svg>
