<svg width="46" height="46" fill="none" xmlns="http://www.w3.org/2000/svg"><path d="M22.769 44.382c-11.87 0-21.462-9.54-21.462-21.344 0-5.724 2.278-11.09 6.234-15.144 4.077-4.054 9.473-6.32 15.228-6.32 11.87 0 21.462 9.54 21.462 21.345s-9.592 21.344-21.462 21.463Z" fill="url(#a)"/><mask id="c" style="mask-type:alpha" maskUnits="userSpaceOnUse" x="1" y="1" width="44" height="44"><path d="M22.769 44.382c-11.87 0-21.462-9.54-21.462-21.344 0-5.724 2.278-11.09 6.234-15.144 4.077-4.054 9.473-6.32 15.228-6.32 11.87 0 21.462 9.54 21.462 21.345s-9.592 21.344-21.462 21.463Z" fill="url(#b)"/></mask><g mask="url(#c)" fill="#000"><path d="m46.264 18.832-46.641.066.012 8.227 46.64-.066-.01-8.227ZM46.264 35.406l-46.641.066.012 8.228 46.64-.066-.01-8.228ZM46.264 2.258l-46.641.066.012 8.227 46.64-.066-.01-8.227Z"/></g><path d="M23.06 2.512c11.336 0 20.548 9.21 20.548 20.548 0 11.336-9.212 20.548-20.548 20.548-11.337 0-20.548-9.212-20.548-20.548 0-11.337 9.21-20.548 20.548-20.548Zm0-1.712C17.045.8 11.509 3.086 7.298 7.298 3.086 11.508.8 17.045.8 23.06c0 12.273 9.987 22.14 22.14 22.14 6.015 0 11.551-2.286 15.762-6.498 4.212-4.21 6.498-9.747 6.498-15.762C45.2 10.787 35.333.8 23.06.8Z" fill="#fff" stroke="#fff" stroke-width=".4"/><defs><linearGradient id="a" x1="1.29" y1="23.002" x2="44.241" y2="22.942" gradientUnits="userSpaceOnUse"><stop stop-color="#E8990C"/><stop offset=".39" stop-color="#F4B40D"/><stop offset=".742" stop-color="#FCC60D"/><stop offset="1" stop-color="#FFCC0D"/></linearGradient><linearGradient id="b" x1="1.29" y1="23.002" x2="44.241" y2="22.942" gradientUnits="userSpaceOnUse"><stop stop-color="#E8990C"/><stop offset=".39" stop-color="#F4B40D"/><stop offset=".742" stop-color="#FCC60D"/><stop offset="1" stop-color="#FFCC0D"/></linearGradient></defs></svg>