<svg width="45" height="45" viewBox="0 0 45 45" fill="none" xmlns="http://www.w3.org/2000/svg">
<path fill-rule="evenodd" clip-rule="evenodd" d="M22.5 45C10.0736 45 0 34.9264 0 22.5C0 10.0736 10.0736 0 22.5 0C34.9264 0 45 10.0736 45 22.5C45 34.9264 34.9264 45 22.5 45ZM24.6823 31.268L32.3652 23.5851C32.6607 23.2896 32.6607 22.8105 32.3652 22.515L24.6823 14.8321C24.3868 14.5366 23.9077 14.5366 23.6122 14.8321C23.3167 15.1276 23.3167 15.6067 23.6122 15.9022L30.0034 22.2934H14.2692C13.8513 22.2934 13.5125 22.6322 13.5125 23.0501C13.5125 23.4679 13.8513 23.8067 14.2692 23.8067H30.0034L23.6122 30.1979C23.3167 30.4934 23.3167 30.9725 23.6122 31.268C23.9077 31.5635 24.3868 31.5635 24.6823 31.268Z" fill="#FFD400"/>
</svg>
