<svg width="45" height="45" viewBox="0 0 45 45" fill="none" xmlns="http://www.w3.org/2000/svg">
<path fill-rule="evenodd" clip-rule="evenodd" d="M22.5 0C34.9264 0 45 10.0736 45 22.5C45 34.9264 34.9264 45 22.5 45C10.0736 45 0 34.9264 0 22.5C0 10.0736 10.0736 0 22.5 0ZM12.635 21.4147C12.3395 21.7102 12.3395 22.1893 12.635 22.4848L20.318 30.1677C20.6135 30.4632 21.0925 30.4632 21.388 30.1677C21.6835 29.8722 21.6835 29.3931 21.388 29.0976L14.9968 22.7064L30.731 22.7064C31.1489 22.7064 31.4877 22.3676 31.4877 21.9497C31.4877 21.5318 31.1489 21.1931 30.731 21.1931L14.9968 21.1931L21.388 14.8019C21.6835 14.5064 21.6835 14.0273 21.388 13.7318C21.0925 13.4363 20.6135 13.4363 20.318 13.7318L12.635 21.4147Z" fill="#FFD400"/>
</svg>
