<svg width="21" height="21" viewBox="0 0 21 21" fill="none" xmlns="http://www.w3.org/2000/svg">
<path d="M16.1752 15.0772V17.3159C16.176 17.5238 16.1334 17.7295 16.0502 17.9199C15.9669 18.1103 15.8448 18.2813 15.6917 18.4218C15.5385 18.5623 15.3577 18.6692 15.1608 18.7358C14.964 18.8024 14.7554 18.8271 14.5484 18.8084C12.2521 18.5589 10.0463 17.7742 8.10838 16.5175C6.30535 15.3717 4.7767 13.8431 3.63098 12.0401C2.36983 10.0933 1.58499 7.87682 1.34004 5.57022C1.32139 5.36386 1.34592 5.15588 1.41205 4.95952C1.47819 4.76316 1.58449 4.58272 1.72418 4.42969C1.86387 4.27666 2.03389 4.1544 2.22343 4.07068C2.41296 3.98696 2.61785 3.94363 2.82505 3.94343H5.06375C5.4259 3.93987 5.77699 4.06811 6.05158 4.30426C6.32617 4.54041 6.50553 4.86835 6.55621 5.22695C6.6507 5.94339 6.82594 6.64683 7.07858 7.32387C7.17898 7.59096 7.20071 7.88124 7.14119 8.16031C7.08167 8.43937 6.94341 8.69553 6.74277 8.89842L5.79505 9.84614C6.85736 11.7144 8.40423 13.2612 10.2725 14.3235L11.2202 13.3758C11.4231 13.1752 11.6792 13.0369 11.9583 12.9774C12.2374 12.9179 12.5276 12.9396 12.7947 13.04C13.4718 13.2927 14.1752 13.4679 14.8916 13.5624C15.2541 13.6135 15.5852 13.7961 15.8218 14.0754C16.0585 14.3547 16.1842 14.7113 16.1752 15.0772Z" stroke="#909090" stroke-width="1.33696" stroke-linecap="round" stroke-linejoin="round"/>
<path d="M11.7773 7.40231C11.5163 7.66337 11.5163 8.08663 11.7773 8.34769C12.0384 8.60874 12.4616 8.60874 12.7227 8.34769L11.7773 7.40231ZM19.0435 1.75C19.0435 1.38081 18.7442 1.08152 18.375 1.08152L12.3587 1.08152C11.9895 1.08152 11.6902 1.38081 11.6902 1.75C11.6902 2.11919 11.9895 2.41848 12.3587 2.41848L17.7065 2.41848L17.7065 7.7663C17.7065 8.13549 18.0058 8.43478 18.375 8.43478C18.7442 8.43478 19.0435 8.13549 19.0435 7.7663L19.0435 1.75ZM12.7227 8.34769L18.8477 2.22269L17.9023 1.27731L11.7773 7.40231L12.7227 8.34769Z" fill="#909090"/>
</svg>
