<svg width="24" height="24" viewBox="0 0 24 24" fill="none" xmlns="http://www.w3.org/2000/svg">
<g clip-path="url(#clip0_1334_12690)">
<path d="M12 23C18.0751 23 23 18.0751 23 12C23 5.92487 18.0751 1 12 1C5.92487 1 1 5.92487 1 12C1 18.0751 5.92487 23 12 23Z" stroke="#E8E8E8" stroke-width="1.5" stroke-linecap="round" stroke-linejoin="round"/>
<path d="M1.5498 12.5508L7.5998 14.7508L6.4998 18.6008L7.5998 21.9008" stroke="#E8E8E8" stroke-width="1.65" stroke-linecap="round" stroke-linejoin="round"/>
<path d="M17.5002 21.3508L16.9502 18.6008L14.2002 17.5008V13.6508L17.5002 12.5508L22.4502 13.1008" stroke="#E8E8E8" stroke-width="1.65" stroke-linecap="round" stroke-linejoin="round"/>
<path d="M19.6998 4.84961L19.1498 6.49961L15.2998 7.04961V10.3496L18.0498 9.24961H20.2498L22.4498 10.3496" stroke="#E8E8E8" stroke-width="1.65" stroke-linecap="round" stroke-linejoin="round"/>
<path d="M1.5498 10.3496L4.2998 8.14961L7.0498 7.59961L9.2498 4.29961L8.1498 2.09961" stroke="#E8E8E8" stroke-width="1.65" stroke-linecap="round" stroke-linejoin="round"/>
</g>
<defs>
<clipPath id="clip0_1334_12690">
<rect width="24" height="24" fill="white"/>
</clipPath>
</defs>
</svg>
