<svg width="17" height="23" viewBox="0 0 17 23" fill="none" xmlns="http://www.w3.org/2000/svg">
<path d="M9.38843 6.5257C9.25615 7.41253 8.76326 8.21675 8.0808 8.80125C7.39835 9.38534 6.52547 9.743 5.62648 9.7501H5.61974H5.613C3.81502 9.743 2.56553 8.29973 2.83683 6.5257C2.96827 5.63888 3.45441 4.83464 4.13687 4.25016C4.81933 3.66603 5.69219 3.30876 6.59034 3.30166H6.59793H6.60468C6.67545 3.30166 6.74537 3.30166 6.81615 3.30876L6.56338 4.99946C6.49261 4.98599 6.42185 4.97926 6.34517 4.97926C5.48157 4.98599 4.6761 5.67362 4.54297 6.5257C4.41659 7.37141 5.01564 8.06577 5.87924 8.06577C6.47829 8.06577 7.04279 7.72869 7.37896 7.24204H6.22469L6.43532 5.85509H9.41454L9.42212 6.07875C9.42718 6.22301 9.41118 6.37471 9.38843 6.5257ZM13.0855 9.51435L14.5355 0H2.17122L0 14.2711H3.10055L2.65737 17.2148H5.77392L2.34394 19.2971L1.78534 23H14.1496L16.1852 9.51435H13.0855Z" fill="#FFE743"/>
</svg>
