<svg width="126" height="32" viewBox="0 0 126 32" fill="none" xmlns="http://www.w3.org/2000/svg">
<g clip-path="url(#clip0_4915_1994)">
<path d="M18.2777 16.9352C18.3048 15.036 19.2908 13.2838 20.8891 12.2945C19.8862 10.8235 18.2568 9.9202 16.4948 9.85848C14.6458 9.6636 12.8509 10.9852 11.9084 10.9852C10.9659 10.9852 9.50711 9.88284 7.94029 9.91329C5.88444 9.98029 4.0138 11.1361 3.01169 12.9584C0.880573 16.6977 2.47141 22.1971 4.51248 25.2179C5.53302 26.7039 6.72765 28.3543 8.28847 28.2629C9.84929 28.1716 10.3836 27.2763 12.2265 27.2763C14.0695 27.2763 14.5858 28.2629 16.1826 28.2264C17.7795 28.1899 18.854 26.7404 19.8385 25.2483C20.5588 24.209 21.1158 23.0626 21.4894 21.85C19.5458 21.0115 18.2823 19.0779 18.2777 16.9352Z" fill="#E8E8E8"/>
<path d="M15.2696 7.8977C16.1542 6.80632 16.5849 5.4082 16.4702 4C15.108 4.13348 13.8464 4.78646 12.9404 5.82705C12.0453 6.86024 11.5918 8.21204 11.6797 9.58468C13.0679 9.60984 14.3908 8.98815 15.2696 7.8977Z" fill="#E8E8E8"/>
</g>
<path d="M38.6388 8.59846C38.119 8.59846 37.6313 8.5065 37.1755 8.32258C36.7197 8.13067 36.3279 7.85079 36 7.48296L36.6717 6.83525C37.1835 7.37101 37.8192 7.63889 38.5788 7.63889C39.1466 7.63889 39.5864 7.49895 39.8982 7.21908C40.2101 6.93921 40.366 6.55538 40.366 6.0676C40.366 5.57982 40.2101 5.20799 39.8982 4.95211C39.5944 4.68822 39.1426 4.55628 38.5428 4.55628H37.7512L37.9071 3.62071H38.5548C39.0346 3.62071 39.4145 3.50076 39.6943 3.26087C39.9822 3.01298 40.1261 2.67714 40.1261 2.25333C40.1261 1.8775 40.0102 1.57363 39.7783 1.34174C39.5544 1.10185 39.2065 0.981902 38.7348 0.981902C38.0791 0.981902 37.4393 1.23779 36.8156 1.74956L36.2159 1.06586C36.9836 0.386172 37.8512 0.0463257 38.8187 0.0463257C39.6184 0.0463257 40.2341 0.246235 40.6659 0.646054C41.0977 1.03788 41.3136 1.54165 41.3136 2.15737C41.3136 2.66114 41.1697 3.07296 40.8818 3.39281C40.5939 3.70467 40.1981 3.91657 39.6943 4.02852C40.2381 4.0845 40.6899 4.28841 41.0497 4.64025C41.4096 4.99209 41.5895 5.47187 41.5895 6.0796C41.5895 6.57537 41.4615 7.01517 41.2056 7.399C40.9578 7.77483 40.6099 8.07069 40.1621 8.2866C39.7143 8.4945 39.2065 8.59846 38.6388 8.59846Z" fill="#E8E8E8"/>
<path d="M47.5326 6.97919C47.5326 7.23507 47.5766 7.42699 47.6645 7.55493C47.7525 7.67487 47.8844 7.76683 48.0604 7.8308L47.8085 8.59846C47.4806 8.55847 47.2167 8.46652 47.0168 8.32258C46.8169 8.17865 46.669 7.95475 46.573 7.65088C46.1492 8.2826 45.5215 8.59846 44.6899 8.59846C44.0662 8.59846 43.5744 8.42254 43.2145 8.07069C42.8547 7.71885 42.6748 7.25906 42.6748 6.69132C42.6748 6.01962 42.9147 5.50386 43.3945 5.14402C43.8822 4.78418 44.5699 4.60426 45.4575 4.60426H46.4291V4.13648C46.4291 3.68868 46.3211 3.36882 46.1052 3.17691C45.8893 2.985 45.5575 2.88904 45.1097 2.88904C44.6459 2.88904 44.0782 3.00099 43.4065 3.22489L43.1306 2.42125C43.9142 2.13338 44.6419 1.98945 45.3136 1.98945C46.0573 1.98945 46.613 2.17336 46.9808 2.5412C47.3487 2.90103 47.5326 3.4168 47.5326 4.0885V6.97919ZM44.9418 7.77083C45.5735 7.77083 46.0693 7.44298 46.4291 6.78728V5.33593H45.6015C44.434 5.33593 43.8503 5.76774 43.8503 6.63135C43.8503 7.00718 43.9422 7.29105 44.1261 7.48296C44.3101 7.67487 44.5819 7.77083 44.9418 7.77083Z" fill="#E8E8E8"/>
<path d="M50.9024 8.45452H49.7989V2.13338H53.7451L53.6012 3.04497H50.9024V8.45452Z" fill="#E8E8E8"/>
<path d="M57.8438 1.98945C58.6514 1.98945 59.2432 2.27732 59.619 2.85306C59.9948 3.4288 60.1827 4.24043 60.1827 5.28795C60.1827 6.27951 59.9668 7.07914 59.535 7.68687C59.1032 8.29459 58.4915 8.59846 57.6999 8.59846C56.9962 8.59846 56.4444 8.35856 56.0446 7.87878V10.8774L54.9411 11.0094V2.13338H55.8887L55.9727 2.985C56.2045 2.66514 56.4844 2.42125 56.8123 2.25333C57.1401 2.07741 57.484 1.98945 57.8438 1.98945ZM57.436 7.69886C58.4755 7.69886 58.9953 6.89523 58.9953 5.28795C58.9953 3.67269 58.5195 2.86505 57.5679 2.86505C57.2561 2.86505 56.9722 2.95701 56.7163 3.14093C56.4604 3.32484 56.2365 3.56074 56.0446 3.84861V6.93121C56.2045 7.1791 56.4045 7.37101 56.6443 7.50695C56.8842 7.63489 57.1481 7.69886 57.436 7.69886Z" fill="#E8E8E8"/>
<path d="M64.5469 8.49051C64.299 9.22617 63.9512 9.80591 63.5034 10.2297C63.0636 10.6615 62.4319 10.9214 61.6082 11.0094L61.4883 10.1458C61.9041 10.0738 62.2359 9.96984 62.4838 9.8339C62.7317 9.69796 62.9276 9.52204 63.0716 9.30614C63.2235 9.09823 63.3634 8.81436 63.4914 8.45452H63.1195L60.9965 2.13338H62.172L63.8632 7.65088L65.5185 2.13338H66.6579L64.5469 8.49051Z" fill="#E8E8E8"/>
<path d="M69.3618 1.98945C69.7616 1.98945 70.1334 2.05742 70.4773 2.19335C70.8291 2.3213 71.109 2.51321 71.3169 2.76909C71.5328 3.02498 71.6407 3.33284 71.6407 3.69268C71.6407 4.04452 71.5368 4.33239 71.3289 4.55628C71.129 4.78018 70.8091 4.95211 70.3693 5.07205C70.8971 5.16001 71.2969 5.32394 71.5688 5.56383C71.8407 5.80372 71.9766 6.14757 71.9766 6.59536C71.9766 7.25107 71.7207 7.75084 71.2089 8.09468C70.7052 8.43053 70.0615 8.59846 69.2778 8.59846C68.3262 8.59846 67.5146 8.33458 66.8429 7.80681L67.4187 7.12312C67.6985 7.32303 67.9784 7.47097 68.2583 7.56692C68.5461 7.66288 68.874 7.71086 69.2418 7.71086C70.2734 7.71086 70.7891 7.33503 70.7891 6.58337C70.7891 6.21553 70.6412 5.95965 70.3453 5.81571C70.0575 5.66378 69.6536 5.58782 69.1339 5.58782H68.2943L68.3662 4.72421H69.0139C69.4617 4.72421 69.8216 4.64425 70.0934 4.48432C70.3653 4.32439 70.5013 4.0765 70.5013 3.74065C70.5013 3.4288 70.3853 3.2049 70.1534 3.06896C69.9215 2.92502 69.6177 2.85306 69.2418 2.85306C68.914 2.85306 68.6221 2.89704 68.3662 2.985C68.1183 3.06496 67.8665 3.1929 67.6106 3.36882L67.0828 2.70912C67.4027 2.46923 67.7465 2.28931 68.1143 2.16936C68.4822 2.04942 68.898 1.98945 69.3618 1.98945Z" fill="#E8E8E8"/>
<path d="M78.7175 8.45452H77.626V5.59981C77.626 5.12003 77.642 4.66424 77.674 4.23243C77.706 3.80063 77.734 3.51676 77.758 3.38082L75.1072 8.45452H73.7998V2.13338H74.8913V4.98809C74.8913 5.4119 74.8753 5.8517 74.8433 6.30749C74.8113 6.75529 74.7873 7.04316 74.7713 7.1711L77.3861 2.13338H78.7175V8.45452Z" fill="#E8E8E8"/>
<path d="M85.2619 2.13338L85.13 3.03297H83.1029V8.45452H81.9994V3.03297H79.9123V2.13338H85.2619Z" fill="#E8E8E8"/>
<path d="M90.8727 5.10804C90.8727 5.29195 90.8647 5.47987 90.8487 5.67178H86.8186C86.8665 6.36747 87.0425 6.87923 87.3463 7.20709C87.6502 7.53494 88.042 7.69886 88.5218 7.69886C88.8257 7.69886 89.1055 7.65488 89.3614 7.56692C89.6173 7.47896 89.8852 7.33903 90.1651 7.14711L90.6448 7.80681C89.9731 8.33458 89.2375 8.59846 88.4378 8.59846C87.5582 8.59846 86.8705 8.31059 86.3748 7.73485C85.887 7.15911 85.6431 6.36747 85.6431 5.35992C85.6431 4.70422 85.7471 4.12448 85.955 3.62071C86.1709 3.10894 86.4747 2.70912 86.8665 2.42125C87.2664 2.13338 87.7341 1.98945 88.2699 1.98945C89.1095 1.98945 89.7532 2.26532 90.201 2.81707C90.6488 3.36882 90.8727 4.13248 90.8727 5.10804ZM89.7812 4.78418C89.7812 4.16046 89.6573 3.68468 89.4094 3.35683C89.1615 3.02898 88.7897 2.86505 88.2939 2.86505C87.3903 2.86505 86.8985 3.52875 86.8186 4.85615H89.7812V4.78418Z" fill="#E8E8E8"/>
<path d="M99.1438 5.02407C100.215 5.12803 100.751 5.6238 100.751 6.5114C100.751 7.1751 100.507 7.66688 100.019 7.98673C99.5396 8.29859 98.8959 8.45452 98.0883 8.45452H95.8093V2.21734C96.553 2.06541 97.2447 1.98945 97.8844 1.98945C98.668 1.98945 99.2878 2.13738 99.7436 2.43325C100.199 2.72911 100.427 3.15292 100.427 3.70467C100.427 4.06451 100.319 4.35638 100.103 4.58027C99.8875 4.80417 99.5676 4.95211 99.1438 5.02407ZM97.8964 2.84106C97.5605 2.84106 97.2327 2.86505 96.9128 2.91303V4.70022H98.1003C98.4841 4.70022 98.78 4.62825 98.9879 4.48432C99.1958 4.34038 99.2998 4.09649 99.2998 3.75265C99.2998 3.43279 99.1838 3.2009 98.9519 3.05696C98.72 2.91303 98.3682 2.84106 97.8964 2.84106ZM98.0883 7.59091C98.5601 7.59091 98.9279 7.51095 99.1918 7.35102C99.4557 7.19109 99.5876 6.90322 99.5876 6.48741C99.5876 6.14357 99.4757 5.89568 99.2518 5.74375C99.0279 5.59182 98.6481 5.51585 98.1123 5.51585H96.9128V7.59091H98.0883Z" fill="#E8E8E8"/>
<path d="M44.8968 26.6485L44.1747 23.9617H40.3293L39.6072 26.6485H37.3066L40.917 15.045H43.6542L47.2477 26.6485H44.8968ZM40.7659 22.2825H43.7213L42.2436 16.741L40.7659 22.2825Z" fill="#E8E8E8"/>
<path d="M53.0748 17.5135C54.1943 17.5135 55.0228 17.9221 55.5601 18.7393C56.0975 19.5565 56.3661 20.704 56.3661 22.1817C56.3661 23.0997 56.2262 23.917 55.9463 24.6334C55.6777 25.3387 55.2746 25.8929 54.7373 26.2959C54.2111 26.6989 53.5842 26.9004 52.8565 26.9004C51.9162 26.9004 51.1717 26.5758 50.6231 25.9265V30.0742L48.4737 30.3093V17.7653H50.3545L50.472 18.8569C50.8191 18.4091 51.2165 18.0732 51.6643 17.8493C52.1121 17.6254 52.5823 17.5135 53.0748 17.5135ZM52.252 25.2548C53.4946 25.2548 54.116 24.236 54.116 22.1985C54.116 21.1126 53.976 20.329 53.6962 19.8476C53.4163 19.3662 52.9965 19.1255 52.4367 19.1255C52.0785 19.1255 51.7426 19.2375 51.4292 19.4614C51.1157 19.6741 50.847 19.9652 50.6231 20.3346V24.3312C51.0374 24.9469 51.5803 25.2548 52.252 25.2548Z" fill="#E8E8E8"/>
<path d="M63.0781 17.5135C64.1976 17.5135 65.026 17.9221 65.5634 18.7393C66.1008 19.5565 66.3694 20.704 66.3694 22.1817C66.3694 23.0997 66.2295 23.917 65.9496 24.6334C65.6809 25.3387 65.2779 25.8929 64.7406 26.2959C64.2144 26.6989 63.5875 26.9004 62.8598 26.9004C61.9194 26.9004 61.175 26.5758 60.6264 25.9265V30.0742L58.477 30.3093V17.7653H60.3578L60.4753 18.8569C60.8223 18.4091 61.2198 18.0732 61.6676 17.8493C62.1154 17.6254 62.5855 17.5135 63.0781 17.5135ZM62.2553 25.2548C63.4979 25.2548 64.1192 24.236 64.1192 22.1985C64.1192 21.1126 63.9793 20.329 63.6994 19.8476C63.4196 19.3662 62.9998 19.1255 62.44 19.1255C62.0818 19.1255 61.7459 19.2375 61.4325 19.4614C61.119 19.6741 60.8503 19.9652 60.6264 20.3346V24.3312C61.0406 24.9469 61.5836 25.2548 62.2553 25.2548Z" fill="#E8E8E8"/>
<path d="M76.0872 14.7931C76.9045 14.7931 77.6154 14.9106 78.2199 15.1457C78.8244 15.3808 79.3898 15.7391 79.9159 16.2204L78.8244 17.4799C78.4102 17.1328 77.9904 16.8809 77.565 16.7242C77.1508 16.5675 76.703 16.4891 76.2216 16.4891C75.6842 16.4891 75.2476 16.6123 74.9118 16.8586C74.5871 17.0937 74.4248 17.4295 74.4248 17.8661C74.4248 18.1572 74.4864 18.3979 74.6095 18.5882C74.7439 18.7785 74.9789 18.9576 75.3148 19.1255C75.6506 19.2935 76.1488 19.4782 76.8093 19.6797C77.9512 20.0379 78.8076 20.4857 79.3786 21.0231C79.9607 21.5492 80.2518 22.3217 80.2518 23.3404C80.2518 24.0345 80.0726 24.6502 79.7144 25.1876C79.3674 25.7249 78.8636 26.1448 78.2031 26.447C77.5426 26.7493 76.7589 26.9004 75.8522 26.9004C74.9678 26.9004 74.1729 26.7605 73.4676 26.4806C72.7735 26.1895 72.1746 25.7977 71.6708 25.3051L72.8127 24.0289C73.2605 24.4095 73.7251 24.7006 74.2065 24.9021C74.6879 25.0924 75.2196 25.1876 75.8018 25.1876C76.4399 25.1876 76.9549 25.0365 77.3467 24.7342C77.7385 24.4319 77.9344 24.0065 77.9344 23.458C77.9344 23.1221 77.8672 22.8478 77.7329 22.6351C77.5986 22.4112 77.3691 22.2153 77.0444 22.0474C76.7198 21.8683 76.2496 21.6836 75.6339 21.4933C74.4024 21.1126 73.5124 20.6536 72.9639 20.1163C72.4153 19.5789 72.141 18.8736 72.141 18.0004C72.141 17.3623 72.309 16.8026 72.6448 16.3212C72.9807 15.8398 73.4452 15.4648 74.0386 15.1961C74.6431 14.9274 75.326 14.7931 76.0872 14.7931Z" fill="#E8E8E8"/>
<path d="M87.163 26.2287C86.8496 26.4526 86.4969 26.6205 86.1051 26.7325C85.7245 26.8444 85.3326 26.9004 84.9296 26.9004C84.0564 26.8892 83.3903 26.6429 82.9313 26.1615C82.4835 25.669 82.2596 24.9469 82.2596 23.9953V19.3102H80.8659V17.7653H82.2596V15.8006L84.4091 15.5487V17.7653H86.4745L86.2562 19.3102H84.4091V23.9449C84.4091 24.3816 84.4818 24.695 84.6274 24.8853C84.7841 25.0756 85.0248 25.1708 85.3494 25.1708C85.6741 25.1708 86.0267 25.0644 86.4074 24.8517L87.163 26.2287Z" fill="#E8E8E8"/>
<path d="M91.7204 17.5135C93.0303 17.5135 94.049 17.9333 94.7767 18.7729C95.5155 19.6013 95.885 20.7432 95.885 22.1985C95.885 23.1277 95.717 23.9505 95.3812 24.667C95.0453 25.3723 94.564 25.9209 93.937 26.3127C93.3101 26.7045 92.5657 26.9004 91.7037 26.9004C90.3938 26.9004 89.3695 26.4862 88.6306 25.6578C87.8918 24.8182 87.5223 23.6651 87.5223 22.1985C87.5223 21.2694 87.6903 20.4521 88.0261 19.7468C88.362 19.0416 88.8433 18.493 89.4703 18.1012C90.1084 17.7094 90.8584 17.5135 91.7204 17.5135ZM91.7204 19.1423C90.433 19.1423 89.7893 20.1611 89.7893 22.1985C89.7893 23.2509 89.9461 24.0289 90.2595 24.5327C90.5842 25.0253 91.0655 25.2715 91.7037 25.2715C92.3418 25.2715 92.8176 25.0197 93.131 24.5159C93.4557 24.0121 93.618 23.2397 93.618 22.1985C93.618 21.1574 93.4557 20.3906 93.131 19.898C92.8176 19.3942 92.3474 19.1423 91.7204 19.1423Z" fill="#E8E8E8"/>
<path d="M102.283 17.5303C102.607 17.5303 102.904 17.5694 103.173 17.6478L102.803 19.7301C102.535 19.6629 102.271 19.6293 102.014 19.6293C101.488 19.6293 101.074 19.8196 100.771 20.2002C100.469 20.5697 100.228 21.1406 100.049 21.9131V26.6485H97.8998V17.7653H99.7637L99.9653 19.5118C100.178 18.8736 100.486 18.3867 100.889 18.0508C101.292 17.7038 101.756 17.5303 102.283 17.5303Z" fill="#E8E8E8"/>
<path d="M111.288 21.997C111.288 22.109 111.271 22.4 111.238 22.8702H105.663C105.73 23.7322 105.954 24.348 106.334 24.7174C106.715 25.0868 107.219 25.2715 107.846 25.2715C108.237 25.2715 108.607 25.21 108.954 25.0868C109.301 24.9525 109.67 24.751 110.062 24.4823L110.952 25.7082C109.967 26.503 108.87 26.9004 107.661 26.9004C106.306 26.9004 105.26 26.4862 104.521 25.6578C103.793 24.8293 103.429 23.6987 103.429 22.2657C103.429 21.3589 103.586 20.5473 103.899 19.8308C104.213 19.1031 104.666 18.5378 105.26 18.1348C105.853 17.7206 106.558 17.5135 107.375 17.5135C108.618 17.5135 109.581 17.9109 110.264 18.7057C110.947 19.4894 111.288 20.5865 111.288 21.997ZM109.155 21.3757C109.155 19.8196 108.579 19.0416 107.426 19.0416C106.9 19.0416 106.485 19.2375 106.183 19.6293C105.892 20.0099 105.719 20.6257 105.663 21.4765H109.155V21.3757Z" fill="#E8E8E8"/>
<defs>
<clipPath id="clip0_4915_1994">
<rect width="24" height="24" fill="white" transform="translate(0 4)"/>
</clipPath>
</defs>
</svg>
