<svg width="126" height="32" viewBox="0 0 126 32" fill="none" xmlns="http://www.w3.org/2000/svg">
<g clip-path="url(#clip0_4915_1977)">
<path d="M5.238 4.38383C4.29906 3.86485 3.19662 3.87685 2.26367 4.39132L13.1981 14.4783L16.8713 10.805L5.238 4.38383Z" fill="#E8E8E8"/>
<path d="M1.17095 5.42334C0.903968 5.85982 0.750977 6.35929 0.750977 6.88876V25.1067C0.750977 25.6197 0.890469 26.1087 1.14245 26.5361L12.1383 15.5403L1.17095 5.42334Z" fill="#E8E8E8"/>
<path d="M21.7419 13.4927L18.2381 11.5593L14.3008 15.4951L19.126 19.9454L21.7434 18.5009C22.6853 17.979 23.2493 17.043 23.2493 15.9961C23.2478 14.9491 22.6853 14.0132 21.7419 13.4927Z" fill="#E8E8E8"/>
<path d="M13.2407 16.5571L2.21484 27.583C2.69332 27.856 3.21829 28 3.74626 28C4.25623 28 4.7692 27.871 5.23867 27.6115L17.7435 20.7104L13.2407 16.5571Z" fill="#E8E8E8"/>
</g>
<path d="M42.968 7.71709V10.5968H42.0623L41.8811 8.70225H37.0869L36.9057 10.5968H36V7.71709H36.5676C36.785 7.49817 36.95 7.2203 37.0627 6.88349C37.1835 6.54668 37.2841 6.10042 37.3646 5.54468C37.4532 4.98053 37.586 3.97432 37.7631 2.52605L38.065 0H42.2917V7.71709H42.968ZM41.1445 0.985161H39.0674L38.8983 2.57657C38.7534 3.87328 38.6326 4.82055 38.536 5.41838C38.4475 6.01621 38.3267 6.49195 38.1737 6.8456C38.0288 7.19925 37.8155 7.48974 37.5337 7.71709H41.1445V0.985161Z" fill="#E8E8E8"/>
<path d="M47.0417 1.89454C47.9353 1.89454 48.6277 2.20609 49.1188 2.82918C49.6179 3.45227 49.8675 4.2985 49.8675 5.36786C49.8675 6.05831 49.7548 6.66878 49.5294 7.19925C49.3039 7.7213 48.9779 8.12968 48.5512 8.42438C48.1245 8.71067 47.6173 8.85381 47.0296 8.85381C46.1359 8.85381 45.4395 8.54227 44.9404 7.91917C44.4412 7.29608 44.1917 6.44985 44.1917 5.38049C44.1917 4.69004 44.3044 4.08378 44.5298 3.56173C44.7552 3.03126 45.0813 2.62288 45.508 2.3366C45.9347 2.04189 46.4459 1.89454 47.0417 1.89454ZM47.0417 2.82918C45.9387 2.82918 45.3872 3.67962 45.3872 5.38049C45.3872 7.07295 45.9347 7.91917 47.0296 7.91917C48.1245 7.91917 48.6719 7.06874 48.6719 5.36786C48.6719 3.67541 48.1285 2.82918 47.0417 2.82918Z" fill="#E8E8E8"/>
<path d="M54.0215 1.89454C54.3999 1.89454 54.7461 1.95348 55.0601 2.07136C55.3741 2.18082 55.676 2.36186 55.9658 2.61446L55.4345 3.34702C55.209 3.17862 54.9876 3.05652 54.7703 2.98074C54.5609 2.89654 54.3275 2.85444 54.0698 2.85444C53.5546 2.85444 53.1521 3.06915 52.8622 3.49858C52.5804 3.92801 52.4396 4.56373 52.4396 5.40575C52.4396 6.24777 52.5804 6.87086 52.8622 7.27503C53.144 7.67078 53.5465 7.86865 54.0698 7.86865C54.3194 7.86865 54.5489 7.83076 54.7582 7.75498C54.9675 7.67078 55.201 7.54027 55.4586 7.36344L55.9658 8.12126C55.3862 8.60963 54.7381 8.85381 54.0215 8.85381C53.1601 8.85381 52.4798 8.55069 51.9807 7.94443C51.4896 7.33818 51.244 6.50037 51.244 5.43101C51.244 4.72372 51.3567 4.10483 51.5821 3.57436C51.8076 3.04389 52.1256 2.6313 52.5362 2.3366C52.9548 2.04189 53.4499 1.89454 54.0215 1.89454Z" fill="#E8E8E8"/>
<path d="M61.7689 2.0461L61.6361 2.99337H59.5952V8.70225H58.4842V2.99337H56.3829V2.0461H61.7689Z" fill="#E8E8E8"/>
<path d="M65.4663 8.74014C65.2168 9.5148 64.8665 10.1253 64.4157 10.5715C63.9729 11.0262 63.3369 11.2999 62.5077 11.3925L62.3869 10.4831C62.8055 10.4073 63.1396 10.2979 63.3892 10.1547C63.6388 10.0116 63.836 9.82634 63.981 9.599C64.1339 9.38007 64.2748 9.08116 64.4036 8.70225H64.0293L61.8918 2.0461H63.0752L64.778 7.85602L66.4445 2.0461H67.5918L65.4663 8.74014Z" fill="#E8E8E8"/>
<path d="M72.5815 8.70225V2.99337H69.973V8.70225H68.862V2.0461H73.6925V8.70225H72.5815Z" fill="#E8E8E8"/>
<path d="M79.7408 8.70225V5.77203H77.0961V8.70225H75.9851V2.0461H77.0961V4.83739H79.7408V2.0461H80.8519V8.70225H79.7408Z" fill="#E8E8E8"/>
<path d="M85.5347 1.89454C86.4283 1.89454 87.1207 2.20609 87.6118 2.82918C88.111 3.45227 88.3605 4.2985 88.3605 5.36786C88.3605 6.05831 88.2478 6.66878 88.0224 7.19925C87.797 7.7213 87.4709 8.12968 87.0442 8.42438C86.6175 8.71067 86.1103 8.85381 85.5226 8.85381C84.629 8.85381 83.9326 8.54227 83.4334 7.91917C82.9343 7.29608 82.6847 6.44985 82.6847 5.38049C82.6847 4.69004 82.7974 4.08378 83.0228 3.56173C83.2483 3.03126 83.5743 2.62288 84.001 2.3366C84.4277 2.04189 84.9389 1.89454 85.5347 1.89454ZM85.5347 2.82918C84.4317 2.82918 83.8803 3.67962 83.8803 5.38049C83.8803 7.07295 84.4277 7.91917 85.5226 7.91917C86.6175 7.91917 87.165 7.06874 87.165 5.36786C87.165 3.67541 86.6216 2.82918 85.5347 2.82918Z" fill="#E8E8E8"/>
<path d="M96.7491 5.08999C97.8279 5.19946 98.3673 5.72151 98.3673 6.65615C98.3673 7.35502 98.1218 7.87286 97.6307 8.20967C97.1476 8.53806 96.4995 8.70225 95.6864 8.70225H93.3919V2.13451C94.1406 1.97453 94.837 1.89454 95.4811 1.89454C96.2701 1.89454 96.894 2.05031 97.3529 2.36186C97.8118 2.6734 98.0413 3.11967 98.0413 3.70067C98.0413 4.07957 97.9326 4.38691 97.7152 4.62268C97.4978 4.85844 97.1758 5.01421 96.7491 5.08999ZM95.4932 2.79129C95.155 2.79129 94.825 2.81655 94.5029 2.86707V4.74898H95.6985C96.0849 4.74898 96.3828 4.6732 96.5921 4.52163C96.8014 4.37007 96.9061 4.11325 96.9061 3.75119C96.9061 3.41438 96.7894 3.1702 96.5559 3.01863C96.3224 2.86707 95.9682 2.79129 95.4932 2.79129ZM95.6864 7.79287C96.1614 7.79287 96.5317 7.70867 96.7974 7.54027C97.0631 7.37186 97.1959 7.06874 97.1959 6.63089C97.1959 6.26882 97.0832 6.00779 96.8578 5.84781C96.6324 5.68783 96.25 5.60784 95.7106 5.60784H94.5029V7.79287H95.6864Z" fill="#E8E8E8"/>
<path d="M41.8214 15.6615C42.5878 15.6615 43.2641 15.7853 43.8502 16.0328C44.4475 16.2686 45.0111 16.6222 45.5408 17.0938L44.3405 18.4022C43.9234 18.0604 43.5289 17.8128 43.157 17.6596C42.7963 17.5063 42.3736 17.4297 41.889 17.4297C40.9873 17.4297 40.249 17.8069 39.6742 18.5614C39.0994 19.3158 38.812 20.4711 38.812 22.0271C38.812 23.6539 39.0374 24.8268 39.4882 25.5459C39.9503 26.265 40.6492 26.6245 41.5847 26.6245C42.2947 26.6245 42.9147 26.4654 43.4444 26.1471V22.9643H41.6861L41.4494 21.2314H45.6423V27.2081C44.3799 28.0097 43.0386 28.4105 41.6185 28.4105C39.9503 28.4105 38.6711 27.8682 37.7806 26.7837C36.9015 25.6992 36.4619 24.1136 36.4619 22.0271C36.4619 20.6951 36.6986 19.5516 37.172 18.5968C37.6567 17.6301 38.3047 16.8992 39.1163 16.4041C39.9278 15.909 40.8295 15.6615 41.8214 15.6615Z" fill="#E8E8E8"/>
<path d="M51.47 18.526C52.7887 18.526 53.8144 18.9681 54.547 19.8522C55.2909 20.7245 55.6628 21.9269 55.6628 23.4594C55.6628 24.4378 55.4938 25.3043 55.1556 26.0587C54.8175 26.8014 54.3328 27.379 53.7016 27.7916C53.0705 28.2042 52.3209 28.4105 51.453 28.4105C50.1343 28.4105 49.103 27.9743 48.3591 27.102C47.6152 26.2179 47.2433 25.0037 47.2433 23.4594C47.2433 22.481 47.4123 21.6204 47.7505 20.8778C48.0886 20.1351 48.5733 19.5575 49.2045 19.1449C49.8469 18.7323 50.6021 18.526 51.47 18.526ZM51.47 20.2412C50.1738 20.2412 49.5257 21.3139 49.5257 23.4594C49.5257 24.5675 49.6835 25.3868 49.9991 25.9173C50.3259 26.4359 50.8106 26.6953 51.453 26.6953C52.0955 26.6953 52.5745 26.43 52.8901 25.8996C53.217 25.3691 53.3804 24.5557 53.3804 23.4594C53.3804 22.3631 53.217 21.5556 52.8901 21.0369C52.5745 20.5064 52.1011 20.2412 51.47 20.2412Z" fill="#E8E8E8"/>
<path d="M61.3432 18.526C62.662 18.526 63.6876 18.9681 64.4203 19.8522C65.1642 20.7245 65.5361 21.9269 65.5361 23.4594C65.5361 24.4378 65.367 25.3043 65.0289 26.0587C64.6908 26.8014 64.2061 27.379 63.5749 27.7916C62.9437 28.2042 62.1942 28.4105 61.3263 28.4105C60.0076 28.4105 58.9763 27.9743 58.2324 27.102C57.4885 26.2179 57.1165 25.0037 57.1165 23.4594C57.1165 22.481 57.2856 21.6204 57.6238 20.8778C57.9619 20.1351 58.4465 19.5575 59.0777 19.1449C59.7202 18.7323 60.4754 18.526 61.3432 18.526ZM61.3432 20.2412C60.0471 20.2412 59.399 21.3139 59.399 23.4594C59.399 24.5675 59.5568 25.3868 59.8723 25.9173C60.1992 26.4359 60.6839 26.6953 61.3263 26.6953C61.9688 26.6953 62.4478 26.43 62.7634 25.8996C63.0903 25.3691 63.2537 24.5557 63.2537 23.4594C63.2537 22.3631 63.0903 21.5556 62.7634 21.0369C62.4478 20.5064 61.9744 20.2412 61.3432 20.2412Z" fill="#E8E8E8"/>
<path d="M75.3418 19.2864C74.7669 19.4986 73.9047 19.6046 72.755 19.6046C73.3073 19.864 73.7131 20.1882 73.9723 20.5772C74.2428 20.9544 74.3781 21.4318 74.3781 22.0094C74.3781 22.6224 74.2315 23.1647 73.9385 23.6362C73.6567 24.1078 73.2397 24.4791 72.6874 24.7502C72.1464 25.0213 71.5096 25.1569 70.7769 25.1569C70.3712 25.1569 70.0161 25.1098 69.7118 25.0155C69.4638 25.1923 69.3399 25.4221 69.3399 25.7051C69.3399 26.1412 69.7005 26.3593 70.4219 26.3593H71.7913C72.4451 26.3593 73.0143 26.4713 73.4989 26.6953C73.9949 26.9193 74.3781 27.2375 74.6486 27.6501C74.9191 28.0509 75.0543 28.5048 75.0543 29.0117C75.0543 29.9547 74.6711 30.6856 73.9047 31.2043C73.1382 31.7347 72.0337 32 70.591 32C69.554 32 68.7369 31.888 68.1395 31.664C67.5534 31.44 67.1364 31.1159 66.8884 30.6915C66.6404 30.2671 66.5164 29.7249 66.5164 29.0647H68.4607C68.4607 29.3948 68.5171 29.6541 68.6298 29.8427C68.7538 30.0313 68.9679 30.1728 69.2722 30.2671C69.5878 30.3614 70.0387 30.4086 70.6248 30.4086C71.4476 30.4086 72.028 30.3025 72.3662 30.0903C72.7043 29.8781 72.8734 29.5716 72.8734 29.1708C72.8734 28.8172 72.7438 28.5401 72.4845 28.3397C72.2253 28.1511 71.8477 28.0568 71.3518 28.0568H69.9992C69.1539 28.0568 68.5171 27.8859 68.0888 27.544C67.6605 27.2022 67.4463 26.7719 67.4463 26.2532C67.4463 25.9231 67.5365 25.6049 67.7168 25.2984C67.9084 24.9919 68.1677 24.7325 68.4945 24.5203C67.9535 24.2256 67.5534 23.8661 67.2941 23.4417C67.0462 23.0056 66.9222 22.4869 66.9222 21.8857C66.9222 21.2137 67.08 20.6243 67.3956 20.1174C67.7112 19.6105 68.1451 19.2215 68.6974 18.9504C69.261 18.6675 69.9034 18.526 70.6248 18.526C71.5716 18.5496 72.3324 18.4789 72.9072 18.3138C73.4933 18.137 74.1245 17.86 74.8007 17.4828L75.3418 19.2864ZM70.6586 20.0644C70.1739 20.0644 69.7907 20.2294 69.5089 20.5595C69.2384 20.8778 69.1032 21.308 69.1032 21.8503C69.1032 22.4161 69.2441 22.8641 69.5258 23.1942C69.8076 23.5242 70.1965 23.6893 70.6924 23.6893C71.2109 23.6893 71.6054 23.5301 71.8759 23.2119C72.1464 22.8818 72.2816 22.422 72.2816 21.8326C72.2816 20.6538 71.7406 20.0644 70.6586 20.0644Z" fill="#E8E8E8"/>
<path d="M78.7588 28.4105C78.0712 28.4105 77.5302 28.2042 77.1357 27.7916C76.7525 27.3672 76.5609 26.7719 76.5609 26.0057V15.0426L78.725 14.795V25.9349C78.725 26.3711 78.894 26.5892 79.2322 26.5892C79.4012 26.5892 79.5703 26.5597 79.7394 26.5008L80.1958 28.0922C79.745 28.3044 79.266 28.4105 78.7588 28.4105Z" fill="#E8E8E8"/>
<path d="M88.8866 23.2472C88.8866 23.3651 88.8697 23.6716 88.8359 24.1667H83.2228C83.2904 25.0744 83.5159 25.7227 83.8991 26.1118C84.2823 26.5008 84.7895 26.6953 85.4207 26.6953C85.8152 26.6953 86.1871 26.6304 86.5365 26.5008C86.8859 26.3593 87.2579 26.1471 87.6524 25.8642L88.5484 27.155C87.5566 27.992 86.452 28.4105 85.2347 28.4105C83.8709 28.4105 82.8171 27.9743 82.0732 27.102C81.3405 26.2296 80.9742 25.039 80.9742 23.5301C80.9742 22.5753 81.132 21.7206 81.4476 20.9662C81.7632 20.2 82.2197 19.6046 82.8171 19.1803C83.4144 18.7441 84.1245 18.526 84.9473 18.526C86.1984 18.526 87.1677 18.9445 87.8553 19.7815C88.5428 20.6066 88.8866 21.7619 88.8866 23.2472ZM86.7394 22.593C86.7394 20.9544 86.159 20.1351 84.998 20.1351C84.4683 20.1351 84.0512 20.3414 83.7469 20.754C83.4539 21.1548 83.2792 21.8032 83.2228 22.6991H86.7394V22.593Z" fill="#E8E8E8"/>
<path d="M98.5712 15.9267C100.07 15.9267 101.231 16.2509 102.054 16.8992C102.888 17.5476 103.305 18.5201 103.305 19.8168C103.305 21.1725 102.888 22.1922 102.054 22.8759C101.22 23.5478 100.11 23.8838 98.7234 23.8838H97.354V28.1452H95.1223V15.9267H98.5712ZM98.5543 22.1332C99.3546 22.1332 99.9576 21.9623 100.363 21.6204C100.769 21.2668 100.972 20.6656 100.972 19.8168C100.972 18.3669 100.166 17.6419 98.5543 17.6419H97.354V22.1332H98.5543Z" fill="#E8E8E8"/>
<path d="M106.992 28.4105C106.304 28.4105 105.763 28.2042 105.369 27.7916C104.985 27.3672 104.794 26.7719 104.794 26.0057V15.0426L106.958 14.795V25.9349C106.958 26.3711 107.127 26.5892 107.465 26.5892C107.634 26.5892 107.803 26.5597 107.972 26.5008L108.429 28.0922C107.978 28.3044 107.499 28.4105 106.992 28.4105Z" fill="#E8E8E8"/>
<path d="M116.393 25.6697C116.393 26.0351 116.443 26.3063 116.545 26.4831C116.657 26.6481 116.832 26.7778 117.069 26.8721L116.612 28.3751C116.105 28.3279 115.688 28.1983 115.361 27.9861C115.046 27.7739 114.803 27.4497 114.634 27.0136C114.33 27.4851 113.947 27.8387 113.485 28.0745C113.034 28.2985 112.527 28.4105 111.963 28.4105C111.073 28.4105 110.368 28.1452 109.85 27.6148C109.331 27.0843 109.072 26.3888 109.072 25.5282C109.072 24.5145 109.421 23.7423 110.12 23.2119C110.83 22.6696 111.839 22.3985 113.146 22.3985H114.262V21.868C114.262 21.2668 114.127 20.8483 113.857 20.6125C113.597 20.365 113.175 20.2412 112.589 20.2412C111.935 20.2412 111.146 20.4062 110.222 20.7363L109.714 19.198C110.83 18.75 111.912 18.526 112.96 18.526C115.249 18.526 116.393 19.5988 116.393 21.7442V25.6697ZM112.538 26.766C113.27 26.766 113.845 26.3829 114.262 25.6166V23.7246H113.366C111.969 23.7246 111.27 24.2669 111.27 25.3514C111.27 25.7994 111.377 26.1471 111.591 26.3947C111.805 26.6422 112.121 26.766 112.538 26.766Z" fill="#E8E8E8"/>
<path d="M123.092 28.1806C122.731 29.3358 122.185 30.2317 121.452 30.8683C120.719 31.5167 119.716 31.8939 118.442 32L118.223 30.3555C118.809 30.2612 119.277 30.1257 119.626 29.9488C119.987 29.7838 120.274 29.5598 120.488 29.2769C120.702 28.994 120.9 28.6168 121.08 28.1452H120.336L117.496 18.7913H119.795L121.739 26.6422L123.768 18.7913H126L123.092 28.1806Z" fill="#E8E8E8"/>
<defs>
<clipPath id="clip0_4915_1977">
<rect width="24" height="24" fill="white" transform="translate(0 4)"/>
</clipPath>
</defs>
</svg>
