<svg width="25" height="24" viewBox="0 0 25 24" fill="none" xmlns="http://www.w3.org/2000/svg">
<g id="Outlined 24 /internet">
<path id="web" fill-rule="evenodd" clip-rule="evenodd" d="M10.3407 2.90662C6.28556 3.66176 3.16064 7.06246 2.82464 11.25H7.32696C7.52814 8.23409 8.57659 5.34327 10.3407 2.90662ZM13.7487 2.90662C15.5128 5.34327 16.5612 8.23409 16.7624 11.25H21.2647C20.9287 7.06246 17.8038 3.66176 13.7487 2.90662ZM15.2587 11.25C15.0404 8.28424 13.9181 5.45648 12.0447 3.14868C10.1712 5.45648 9.04898 8.28424 8.83064 11.25H15.2587ZM8.83065 12.75H15.2587C15.0404 15.7157 13.9181 18.5435 12.0447 20.8512C10.1713 18.5435 9.049 15.7157 8.83065 12.75ZM7.32697 12.75H2.82464C3.16065 16.9376 6.2856 20.3383 10.3407 21.0934C8.57663 18.6567 7.52816 15.7659 7.32697 12.75ZM13.7486 21.0934C15.5127 18.6567 16.5612 15.7659 16.7624 12.75H21.2647C20.9287 16.9376 17.8038 20.3383 13.7486 21.0934ZM12.0447 1.25C6.10762 1.25 1.29468 6.06294 1.29468 12C1.29468 17.9371 6.10762 22.75 12.0447 22.75C17.9817 22.75 22.7947 17.9371 22.7947 12C22.7947 6.06294 17.9817 1.25 12.0447 1.25Z" fill="white"/>
</g>
</svg>
