<svg width="24" height="24" viewBox="0 0 24 24" fill="none" xmlns="http://www.w3.org/2000/svg">
<g id="Outlined 24 /vneseti">
<path id="Vector" d="M18.4858 17.2318V19.7903C18.4867 20.0278 18.4381 20.2629 18.3429 20.4805C18.2478 20.6981 18.1082 20.8935 17.9332 21.0541C17.7582 21.2146 17.5515 21.3369 17.3265 21.413C17.1015 21.4891 16.8631 21.5173 16.6266 21.4959C14.0022 21.2108 11.4814 20.314 9.26658 18.8777C7.20597 17.5683 5.45894 15.8213 4.14955 13.7607C2.70823 11.5358 1.81127 9.00271 1.53134 6.36659C1.51002 6.13076 1.53805 5.89306 1.61364 5.66865C1.68922 5.44424 1.8107 5.23802 1.97035 5.06313C2.13 4.88824 2.32431 4.74851 2.54092 4.65283C2.75753 4.55716 2.99169 4.50763 3.22848 4.50741H5.787C6.20089 4.50333 6.60213 4.6499 6.91595 4.91978C7.22977 5.18967 7.43475 5.56445 7.49267 5.97429C7.60066 6.79307 7.80093 7.59701 8.08966 8.37076C8.20441 8.67601 8.22924 9.00776 8.16122 9.32669C8.0932 9.64562 7.93518 9.93837 7.70588 10.1703L6.62278 11.2534C7.83684 13.3885 9.60469 15.1563 11.7398 16.3704L12.8229 15.2873C13.0548 15.058 13.3475 14.9 13.6665 14.8319C13.9854 14.7639 14.3172 14.7888 14.6224 14.9035C15.3962 15.1922 16.2001 15.3925 17.0189 15.5005C17.4332 15.5589 17.8115 15.7676 18.082 16.0868C18.3524 16.406 18.4961 16.8135 18.4858 17.2318Z" stroke="white" stroke-width="1.5" stroke-linecap="round" stroke-linejoin="round"/>
<path id="Arrow 1" d="M13.4697 8.46967C13.1768 8.76256 13.1768 9.23744 13.4697 9.53033C13.7626 9.82322 14.2374 9.82322 14.5303 9.53033L13.4697 8.46967ZM21.75 2C21.75 1.58579 21.4142 1.25 21 1.25L14.25 1.25C13.8358 1.25 13.5 1.58579 13.5 2C13.5 2.41421 13.8358 2.75 14.25 2.75H20.25V8.75C20.25 9.16421 20.5858 9.5 21 9.5C21.4142 9.5 21.75 9.16421 21.75 8.75L21.75 2ZM14.5303 9.53033L21.5303 2.53033L20.4697 1.46967L13.4697 8.46967L14.5303 9.53033Z" fill="white"/>
</g>
</svg>
